<svg width="24" height="25" viewBox="0 0 24 25" fill="none" xmlns="http://www.w3.org/2000/svg">
<g clip-path="url(#clip0_5_296)">
<path d="M17.9209 1.55245C17.9206 1.95014 17.7623 2.33142 17.4809 2.61245L9.80895 10.2845C9.57673 10.5166 9.39252 10.7922 9.26684 11.0956C9.14117 11.399 9.07648 11.7241 9.07648 12.0525C9.07648 12.3808 9.14117 12.706 9.26684 13.0093C9.39252 13.3127 9.57673 13.5883 9.80895 13.8205L17.4709 21.4825C17.7442 21.7654 17.8954 22.1443 17.892 22.5376C17.8885 22.9309 17.7308 23.3071 17.4527 23.5852C17.1746 23.8633 16.7983 24.021 16.405 24.0245C16.0118 24.0279 15.6329 23.8767 15.3499 23.6035L7.68795 15.9475C6.65771 14.9152 6.0791 13.5164 6.0791 12.058C6.0791 10.5995 6.65771 9.20072 7.68795 8.16846L15.3599 0.491454C15.5697 0.281538 15.8371 0.138567 16.1281 0.080633C16.4192 0.0226989 16.7209 0.0524051 16.9951 0.165993C17.2692 0.27958 17.5036 0.471944 17.6684 0.718743C17.8332 0.965541 17.9211 1.25568 17.9209 1.55245V1.55245Z" fill="#6179A8"/>
</g>
<defs>
<clipPath id="clip0_5_296">
<rect width="24" height="24" fill="white" transform="translate(0 0.0474777)"/>
</clipPath>
</defs>
</svg>
