<svg width="19" height="19" viewBox="0 0 19 19" fill="none" xmlns="http://www.w3.org/2000/svg">
<g clip-path="url(#clip0_1_26)">
<path d="M9.17535 0.110565C7.39532 0.110565 5.65526 0.638406 4.17522 1.62734C2.69518 2.61627 1.54163 4.02188 0.860438 5.66641C0.17925 7.31095 0.00101972 9.12055 0.348287 10.8664C0.695554 12.6122 1.55272 14.2159 2.81139 15.4745C4.07007 16.7332 5.67371 17.5904 7.41954 17.9376C9.16537 18.2849 10.975 18.1067 12.6195 17.4255C14.264 16.7443 15.6696 15.5907 16.6586 14.1107C17.6475 12.6307 18.1754 10.8906 18.1754 9.11057C18.1728 6.72441 17.2237 4.43672 15.5365 2.74945C13.8492 1.06219 11.5615 0.113146 9.17535 0.110565V0.110565ZM9.17535 15.8606C7.84033 15.8606 6.53529 15.4647 5.42526 14.723C4.31522 13.9813 3.45006 12.9271 2.93917 11.6937C2.42828 10.4603 2.2946 9.10308 2.55505 7.79371C2.8155 6.48433 3.45838 5.2816 4.40238 4.33759C5.34639 3.39359 6.54912 2.75071 7.85849 2.49026C9.16787 2.22981 10.5251 2.36349 11.7585 2.87438C12.9919 3.38527 14.0461 4.25043 14.7878 5.36047C15.5295 6.4705 15.9254 7.77554 15.9254 9.11057C15.9234 10.9002 15.2116 12.6159 13.9461 13.8813C12.6807 15.1468 10.965 15.8586 9.17535 15.8606V15.8606Z" fill="#F4F4F4"/>
<path d="M9.17927 14.3608C9.80059 14.3608 10.3043 13.8571 10.3043 13.2358C10.3043 12.6145 9.80059 12.1108 9.17927 12.1108C8.55795 12.1108 8.05427 12.6145 8.05427 13.2358C8.05427 13.8571 8.55795 14.3608 9.17927 14.3608Z" fill="#F4F4F4"/>
<path d="M9.74327 3.85053C9.28451 3.76828 8.8133 3.78764 8.36283 3.90724C7.91236 4.02684 7.4936 4.24377 7.13605 4.54275C6.77851 4.84173 6.49088 5.21548 6.29344 5.63767C6.09599 6.05985 5.99353 6.5202 5.99328 6.98628C5.99328 7.28465 6.1118 7.57079 6.32278 7.78177C6.53376 7.99275 6.81991 8.11128 7.11828 8.11128C7.41664 8.11128 7.70279 7.99275 7.91377 7.78177C8.12475 7.57079 8.24327 7.28465 8.24327 6.98628C8.24396 6.82123 8.28827 6.6593 8.37172 6.5169C8.45517 6.3745 8.57479 6.2567 8.71845 6.17544C8.86211 6.09418 9.0247 6.05235 9.18974 6.0542C9.35478 6.05605 9.5164 6.1015 9.6582 6.18596C9.80001 6.27041 9.91696 6.39086 9.9972 6.53509C10.0774 6.67933 10.1181 6.84221 10.1151 7.00723C10.1121 7.17226 10.0655 7.33355 9.98004 7.47475C9.89459 7.61596 9.77332 7.73206 9.62852 7.81128C9.16445 8.00564 8.77006 8.33592 8.49724 8.75866C8.22443 9.18141 8.08595 9.67683 8.10002 10.1798C8.10002 10.4781 8.21855 10.7643 8.42953 10.9753C8.64051 11.1862 8.92665 11.3048 9.22502 11.3048C9.52339 11.3048 9.80954 11.1862 10.0205 10.9753C10.2315 10.7643 10.35 10.4781 10.35 10.1798C10.3493 10.125 10.3533 10.0703 10.362 10.0163C10.4671 9.9204 10.5862 9.84123 10.7153 9.78152C11.2914 9.46396 11.7551 8.97584 12.0427 8.38417C12.3303 7.79251 12.4277 7.12633 12.3215 6.47709C12.2154 5.82786 11.9108 5.22741 11.4497 4.7582C10.9886 4.28898 10.3936 3.97401 9.74627 3.85653L9.74327 3.85053Z" fill="#F4F4F4"/>
</g>
<defs>
<clipPath id="clip0_1_26">
<rect width="18" height="18" fill="white" transform="translate(0.175354 0.110565)"/>
</clipPath>
</defs>
</svg>
